# xmcd
#
# Track frame offsets: 
#        150
#        15637
#        29487
#        43862
#        57150
#        72595
#        87565
#        101170
#        115002
#        130972
#        146120
#        161005
#        175955
#        188582
#        203542
#        219785
#
# Disc length: 3121 seconds
#
# Revision: 1
# Processed by: cddbd v1.5.2PL0 Copyright (c) Steve Scherf et al.
# Submitted via: ExactAudioCopy v0.99pb3
#
DISCID=e70c2f10
DTITLE=Forró Catuaba Com Amendoim - Cartinha De Amor
DYEAR=2000
DGENRE=Forró
TTITLE0=Me Dá Seu Telefone
TTITLE1=Chamegão
TTITLE2=Hei! Estou Partindo
TTITLE3=Forró Das Primas
TTITLE4=Voltar A Ser O Que Sou
TTITLE5=Minha Traíra
TTITLE6=Forró Sem Preconceito
TTITLE7=Teu Olhar
TTITLE8=Das Estrelas Para A Cama
TTITLE9=Vaqueiro Pau De Dar Em Doido
TTITLE10=Fazendo Amor
TTITLE11=Siribolo Na Delegacia
TTITLE12=Cartinha De Amor
TTITLE13=Doadora Universal
TTITLE14=Conselho Ao Filho Adulto
TTITLE15=Confie Em Mim
EXTD=
EXTT0=
EXTT1=
EXTT2=
EXTT3=
EXTT4=
EXTT5=
EXTT6=
EXTT7=
EXTT8=
EXTT9=
EXTT10=
EXTT11=
EXTT12=
EXTT13=
EXTT14=
EXTT15=
PLAYORDER=
